<?xml version="1.0" standalone="no"?>
<!DOCTYPE svg PUBLIC "-//W3C//DTD SVG 20010904//EN"
 "http://www.w3.org/TR/2001/REC-SVG-20010904/DTD/svg10.dtd">
<svg version="1.0" xmlns="http://www.w3.org/2000/svg"
 width="512.000000pt" height="512.000000pt" viewBox="0 0 512.000000 512.000000"
 preserveAspectRatio="xMidYMid meet">

<g transform="translate(0.000000,512.000000) scale(0.100000,-0.100000)"
fill="#000000" stroke="none">
<path d="M2480 5011 c-94 -31 -168 -99 -194 -180 -11 -33 -296 -1358 -296
-1376 0 -1 -65 -4 -143 -7 -132 -4 -149 -6 -200 -32 -31 -15 -74 -47 -96 -72
-62 -71 -71 -110 -71 -320 l0 -182 -54 -30 c-29 -17 -67 -50 -85 -74 -64 -86
-61 -30 -61 -1264 0 -1287 -7 -1188 90 -1285 95 -96 4 -89 1190 -89 1186 0
1095 -7 1191 89 96 98 90 -3 87 1306 l-3 1140 -21 46 c-26 56 -86 118 -137
142 l-37 18 0 183 c0 210 -9 249 -71 320 -22 25 -65 57 -96 72 -51 26 -68 28
-200 32 -78 3 -143 5 -143 7 0 17 -285 1343 -296 1376 -35 107 -137 180 -259
185 -38 2 -81 0 -95 -5z m145 -213 c24 -21 35 -70 160 -663 74 -352 137 -650
140 -662 l5 -23 -370 0 -370 0 5 23 c3 12 66 310 140 662 125 593 136 642 160
663 18 15 39 22 65 22 26 0 47 -7 65 -22z m792 -1581 l28 -27 3 -165 4 -165
-892 0 -892 0 4 164 c3 147 5 166 23 186 11 12 29 26 40 31 11 4 388 7 837 6
l818 -2 27 -28z m173 -572 c16 -8 34 -24 40 -34 7 -13 10 -389 10 -1135 l0
-1114 -26 -31 -26 -31 -1028 0 -1028 0 -26 31 -26 31 0 1114 c0 743 3 1122 10
1134 27 51 -8 49 1068 50 876 0 1007 -2 1032 -15z"/>
<path d="M1875 2337 c-21 -12 -53 -42 -70 -65 l-30 -44 0 -746 0 -747 27 -47
c21 -34 41 -53 80 -72 l52 -26 626 0 626 0 52 26 c39 19 59 38 80 72 l27 47 3
720 c2 521 0 731 -8 760 -16 54 -53 101 -100 125 -38 19 -60 20 -682 20 l-643
0 -40 -23z m1275 -857 l0 -690 -590 0 -590 0 0 690 0 690 590 0 590 0 0 -690z"/>
<path d="M2324 1960 c-47 -19 -69 -92 -44 -141 24 -43 57 -49 280 -49 223 0
256 6 280 49 18 35 12 88 -14 118 l-24 28 -229 2 c-125 1 -238 -2 -249 -7z"/>
<path d="M2333 1569 c-41 -12 -65 -47 -65 -96 0 -29 7 -43 31 -65 l31 -28 230
0 230 0 31 28 c57 51 36 141 -38 161 -47 13 -406 13 -450 0z"/>
<path d="M2299 1152 c-57 -51 -36 -141 38 -161 21 -6 121 -11 223 -11 102 0
202 5 223 11 45 12 69 46 69 96 0 29 -7 43 -31 65 l-31 28 -230 0 -230 0 -31
-28z"/>
</g>
</svg>
