<?xml version="1.0" standalone="no"?>
<!DOCTYPE svg PUBLIC "-//W3C//DTD SVG 20010904//EN"
 "http://www.w3.org/TR/2001/REC-SVG-20010904/DTD/svg10.dtd">
<svg version="1.0" xmlns="http://www.w3.org/2000/svg"
 width="512.000000pt" height="512.000000pt" viewBox="0 0 512.000000 512.000000"
 preserveAspectRatio="xMidYMid meet">

<g transform="translate(0.000000,512.000000) scale(0.100000,-0.100000)"
fill="#000000" stroke="none">
<path d="M2321 4789 c-304 -32 -652 -150 -917 -309 -198 -120 -419 -310 -570
-492 -325 -389 -514 -913 -514 -1428 0 -865 500 -1653 1287 -2027 742 -353
1628 -262 2297 235 274 204 512 492 667 807 371 755 287 1648 -219 2329 -89
119 -264 301 -377 393 -463 375 -1064 553 -1654 492z m366 -209 l85 0 -7 -37
c-24 -134 -185 -209 -306 -142 -51 28 -97 90 -105 141 l-6 37 98 4 c55 2 112
2 128 0 16 -2 67 -3 113 -3z m-544 -81 c15 -114 120 -243 244 -302 63 -30 76
-32 174 -32 101 0 108 1 181 38 122 60 215 178 234 298 8 46 1 46 154 2 321
-92 647 -289 885 -533 l60 -62 -25 -16 c-67 -44 -132 -119 -168 -191 -36 -72
-37 -79 -37 -180 0 -98 2 -111 32 -174 104 -220 351 -313 567 -214 l55 25 25
-107 c43 -178 57 -302 57 -491 0 -191 -15 -319 -57 -491 l-27 -107 -53 25
c-217 99 -462 6 -567 -214 -30 -63 -32 -76 -32 -174 0 -101 1 -108 37 -180 36
-72 101 -147 168 -191 l25 -16 -60 -62 c-238 -244 -564 -441 -885 -533 -154
-44 -146 -45 -154 4 -19 120 -118 243 -243 302 -63 30 -76 32 -173 32 -97 0
-110 -2 -173 -32 -124 -59 -229 -188 -244 -302 -3 -22 -9 -41 -13 -41 -3 0
-53 13 -111 29 -338 96 -626 262 -878 508 l-96 94 25 17 c69 47 132 119 168
191 36 72 37 79 37 180 0 98 -2 111 -32 174 -105 221 -350 313 -568 213 l-54
-24 -25 107 c-43 178 -57 302 -57 491 0 189 14 313 57 491 l25 107 54 -24
c217 -100 463 -7 568 213 30 63 32 76 32 174 0 101 -1 108 -37 180 -36 72 -99
144 -168 191 l-25 17 96 94 c246 240 530 406 854 501 66 19 125 35 131 36 6 0
14 -19 17 -41z m-1165 -809 c157 -114 86 -364 -107 -378 -65 -5 -146 23 -158
54 -14 37 170 354 205 354 11 0 38 -13 60 -30z m3291 -45 c74 -112 146 -258
138 -279 -12 -31 -93 -59 -158 -54 -193 14 -264 264 -107 378 22 17 49 30 60
30 12 0 35 -26 67 -75z m-3297 -1871 c92 -64 119 -184 64 -278 -28 -48 -88
-96 -119 -96 -34 0 -218 317 -204 354 12 31 86 57 154 53 50 -2 71 -9 105 -33z
m3386 16 c23 -10 45 -27 49 -36 14 -37 -170 -354 -205 -354 -11 0 -38 13 -60
30 -133 96 -106 307 48 369 41 16 122 12 168 -9z m-1690 -1077 c49 -28 88 -82
97 -135 l7 -36 -106 -4 c-58 -1 -154 -1 -212 0 l-106 4 6 36 c3 20 18 55 33
76 65 93 181 117 281 59z"/>
<path d="M1793 4036 c-198 -64 -328 -274 -295 -474 32 -194 194 -345 385 -359
134 -10 256 36 347 133 198 209 134 547 -127 676 -60 29 -77 33 -167 35 -65 2
-116 -2 -143 -11z m188 -208 c95 -28 155 -120 147 -222 -16 -195 -276 -259
-385 -95 -56 85 -39 207 40 274 61 53 123 66 198 43z"/>
<path d="M3073 4036 c-198 -64 -328 -274 -295 -474 32 -194 194 -345 385 -359
134 -10 256 36 347 133 198 209 134 547 -127 676 -60 29 -77 33 -167 35 -65 2
-116 -2 -143 -11z m188 -208 c95 -28 155 -120 147 -222 -16 -195 -276 -259
-385 -95 -56 85 -39 207 40 274 61 53 123 66 198 43z"/>
<path d="M1185 2976 c-81 -20 -146 -56 -206 -115 -168 -168 -168 -434 0 -602
65 -64 140 -103 234 -120 129 -24 269 22 368 120 168 168 168 434 0 602 -107
106 -255 149 -396 115z m173 -222 c174 -72 174 -316 0 -388 -133 -56 -287 47
-288 192 -1 147 154 253 288 196z"/>
<path d="M2465 2976 c-123 -30 -237 -120 -288 -227 -80 -170 -48 -359 82 -490
99 -98 239 -144 368 -120 94 17 169 56 234 120 168 168 168 434 0 602 -107
106 -255 149 -396 115z m173 -222 c78 -32 132 -111 132 -194 0 -113 -97 -210
-210 -210 -146 0 -250 155 -194 288 44 107 168 160 272 116z"/>
<path d="M3745 2976 c-81 -20 -146 -56 -206 -115 -168 -168 -168 -434 0 -602
99 -98 239 -144 368 -120 94 17 169 56 234 120 168 168 168 434 0 602 -107
106 -255 149 -396 115z m173 -222 c78 -32 132 -111 132 -194 0 -113 -97 -210
-210 -210 -146 0 -250 155 -194 288 44 107 168 160 272 116z"/>
<path d="M1816 1910 c-66 -17 -153 -70 -206 -126 -198 -210 -134 -548 129
-677 63 -30 72 -32 181 -32 110 0 118 1 183 33 269 132 327 488 112 691 -81
77 -165 113 -273 117 -48 2 -104 -1 -126 -6z m212 -237 c125 -71 137 -254 22
-344 -52 -41 -118 -56 -177 -41 -176 47 -221 273 -75 376 70 50 153 53 230 9z"/>
<path d="M3096 1910 c-66 -17 -153 -70 -206 -126 -198 -210 -134 -548 129
-677 63 -30 72 -32 181 -32 110 0 118 1 183 33 269 132 327 488 112 691 -81
77 -165 113 -273 117 -48 2 -104 -1 -126 -6z m212 -237 c125 -71 137 -254 22
-344 -52 -41 -118 -56 -177 -41 -176 47 -221 273 -75 376 70 50 153 53 230 9z"/>
</g>
</svg>
