<?xml version="1.0" standalone="no"?>
<!DOCTYPE svg PUBLIC "-//W3C//DTD SVG 20010904//EN"
 "http://www.w3.org/TR/2001/REC-SVG-20010904/DTD/svg10.dtd">
<svg version="1.0" xmlns="http://www.w3.org/2000/svg"
 width="512.000000pt" height="512.000000pt" viewBox="0 0 512.000000 512.000000"
 preserveAspectRatio="xMidYMid meet">

<g transform="translate(0.000000,512.000000) scale(0.100000,-0.100000)"
fill="#000000" stroke="none">
<path d="M2420 4440 c-166 -42 -2194 -647 -2229 -665 -63 -32 -125 -98 -158
-170 l-28 -60 -3 -984 c-3 -1095 -5 -1057 64 -1158 37 -53 75 -88 130 -116 54
-28 2206 -658 2287 -669 56 -8 98 -8 155 0 77 11 2190 627 2269 662 63 27 107
65 147 123 69 101 67 63 64 1158 l-3 984 -27 57 c-33 72 -99 143 -160 174 -26
13 -537 169 -1135 345 l-1088 322 -125 3 c-69 2 -141 -1 -160 -6z m1302 -518
c582 -172 1070 -317 1085 -323 49 -18 92 -69 60 -69 -8 0 -81 -20 -163 -44
-562 -168 -1899 -560 -1953 -573 -95 -23 -303 -21 -401 5 -41 10 -520 151
-1065 311 -545 161 -1002 295 -1017 298 -35 7 -35 15 1 45 19 17 96 45 237 86
115 34 605 179 1089 322 l880 260 95 -3 c92 -3 129 -13 1152 -315z m-2472
-902 c560 -165 1051 -307 1091 -316 94 -21 318 -24 414 -5 39 7 535 150 1103
317 568 167 1037 304 1042 304 6 0 10 -55 10 -140 0 -77 -2 -140 -4 -140 -2 0
-484 -142 -1072 -315 -588 -174 -1112 -323 -1164 -332 -79 -14 -110 -14 -185
-5 -80 10 -837 228 -2137 614 l-138 41 0 139 c0 96 3 138 11 138 6 0 469 -135
1029 -300z m-247 -431 c430 -126 895 -263 1032 -304 138 -41 282 -82 320 -91
97 -24 315 -24 410 0 39 9 529 152 1090 317 561 165 1028 302 1038 305 16 5
17 -19 17 -415 0 -231 -4 -422 -8 -425 -13 -8 -2109 -625 -2182 -643 -48 -11
-99 -14 -190 -10 l-125 4 -1090 322 c-599 177 -1093 325 -1097 327 -9 6 -11
844 -3 844 3 0 357 -104 788 -231z m264 -1144 c570 -169 1067 -313 1105 -320
90 -19 287 -19 378 0 39 8 537 152 1106 320 569 168 1039 305 1045 305 5 0 9
-36 9 -80 0 -94 -19 -151 -61 -181 -28 -20 -2066 -626 -2204 -656 -45 -9 -90
-12 -125 -8 -81 10 -2216 641 -2249 665 -42 29 -61 87 -61 180 0 49 4 80 11
80 5 0 476 -137 1046 -305z"/>
<path d="M457 2559 c-21 -12 -47 -61 -47 -89 0 -37 30 -81 67 -96 64 -27 143
21 143 88 0 36 -24 84 -49 98 -25 13 -91 13 -114 -1z"/>
<path d="M4535 2547 c-35 -29 -45 -96 -21 -133 26 -39 79 -58 123 -43 38 12
73 59 73 97 0 31 -26 79 -49 92 -35 18 -98 12 -126 -13z"/>
<path d="M867 2439 c-45 -27 -60 -109 -27 -152 56 -71 170 -46 186 40 8 41
-10 87 -42 108 -26 17 -90 20 -117 4z"/>
<path d="M4127 2426 c-70 -65 -27 -180 68 -180 94 0 138 112 70 180 -34 34
-102 34 -138 0z"/>
<path d="M1259 2301 c-55 -56 -26 -159 50 -176 41 -9 96 17 115 54 20 38 20
55 1 96 -30 62 -116 75 -166 26z"/>
<path d="M3731 2316 c-70 -39 -64 -143 10 -182 44 -22 91 -11 124 28 23 27 26
39 22 77 -9 78 -86 116 -156 77z"/>
<path d="M457 2239 c-21 -12 -47 -61 -47 -89 0 -37 30 -81 67 -96 64 -27 143
21 143 88 0 36 -24 84 -49 98 -25 13 -91 13 -114 -1z"/>
<path d="M4535 2227 c-35 -29 -45 -96 -21 -133 26 -39 79 -58 123 -43 38 12
73 59 73 97 0 31 -26 79 -49 92 -35 18 -98 12 -126 -13z"/>
<path d="M1669 2181 c-81 -82 18 -219 121 -166 38 20 64 74 55 116 -17 76
-120 105 -176 50z"/>
<path d="M3311 2184 c-58 -48 -47 -135 20 -170 69 -35 149 18 149 98 0 87
-100 130 -169 72z"/>
<path d="M867 2119 c-45 -27 -60 -109 -27 -152 56 -71 170 -46 186 40 8 41
-10 87 -42 108 -26 17 -90 20 -117 4z"/>
<path d="M4127 2106 c-70 -65 -27 -180 68 -180 94 0 138 112 70 180 -34 34
-102 34 -138 0z"/>
<path d="M2079 2061 c-59 -60 -28 -161 54 -176 76 -14 141 58 117 131 -25 76
-116 100 -171 45z"/>
<path d="M2902 2065 c-79 -67 -18 -200 83 -181 83 16 115 117 56 177 -39 38
-96 40 -139 4z"/>
<path d="M1259 1981 c-55 -56 -26 -159 50 -176 41 -9 96 17 115 54 20 38 20
55 1 96 -30 62 -116 75 -166 26z"/>
<path d="M3731 1996 c-70 -39 -64 -143 10 -182 44 -22 91 -11 124 28 23 27 26
39 22 77 -9 78 -86 116 -156 77z"/>
<path d="M2495 1948 c-73 -64 -30 -188 65 -188 40 0 88 35 98 72 19 72 -28
138 -98 138 -26 0 -47 -7 -65 -22z"/>
<path d="M1669 1861 c-81 -82 18 -219 121 -166 38 20 64 74 55 116 -17 76
-120 105 -176 50z"/>
<path d="M3311 1864 c-58 -48 -47 -135 20 -170 69 -35 149 18 149 98 0 87
-100 130 -169 72z"/>
<path d="M2079 1741 c-59 -60 -28 -161 54 -176 76 -14 141 58 117 131 -25 76
-116 100 -171 45z"/>
<path d="M2902 1745 c-79 -67 -18 -200 83 -181 83 16 115 117 56 177 -39 38
-96 40 -139 4z"/>
<path d="M2495 1628 c-73 -64 -30 -188 65 -188 40 0 88 35 98 72 19 72 -28
138 -98 138 -26 0 -47 -7 -65 -22z"/>
</g>
</svg>
