<?xml version="1.0" standalone="no"?>
<!DOCTYPE svg PUBLIC "-//W3C//DTD SVG 20010904//EN"
 "http://www.w3.org/TR/2001/REC-SVG-20010904/DTD/svg10.dtd">
<svg version="1.0" xmlns="http://www.w3.org/2000/svg"
 width="768.000000pt" height="768.000000pt" viewBox="0 0 768.000000 768.000000"
 preserveAspectRatio="xMidYMid meet">

<g transform="translate(0.000000,768.000000) scale(0.100000,-0.100000)"
fill="#000000" stroke="none">
<path d="M2372 6413 c-49 -24 -107 -96 -207 -254 -179 -287 -307 -577 -336
-759 -6 -41 -9 -124 -7 -185 8 -178 60 -297 187 -424 69 -69 140 -111 241
-143 111 -34 283 -32 395 5 200 66 356 244 401 457 34 161 -3 399 -96 610 -69
159 -228 436 -336 586 -78 110 -161 147 -242 107z m112 -466 c65 -117 154
-302 194 -402 61 -155 75 -220 70 -318 -5 -99 -28 -146 -106 -219 -68 -63
-111 -81 -202 -82 -63 -1 -84 4 -132 27 -106 52 -177 158 -186 277 -5 81 12
150 78 319 73 185 224 476 242 465 3 -2 22 -32 42 -67z"/>
<path d="M3754 6419 c-64 -19 -118 -87 -267 -334 -217 -361 -304 -618 -295
-865 8 -186 62 -308 194 -436 180 -174 478 -213 716 -93 115 58 244 207 288
332 62 176 45 397 -50 633 -68 171 -248 488 -376 665 -60 83 -139 120 -210 98z
m162 -594 c105 -199 181 -390 203 -511 20 -107 -9 -203 -86 -285 -69 -74 -130
-102 -223 -103 -63 0 -84 5 -129 28 -157 81 -219 230 -172 415 37 148 161 433
258 595 l36 58 30 -48 c17 -27 54 -94 83 -149z"/>
<path d="M5095 6401 c-49 -29 -104 -99 -200 -252 -233 -374 -345 -667 -345
-901 0 -111 18 -195 61 -282 113 -232 327 -356 594 -343 168 8 299 66 410 183
267 281 225 689 -134 1281 -133 221 -185 288 -243 319 -38 20 -107 18 -143 -5z
m156 -521 c112 -203 204 -429 229 -568 26 -144 -42 -286 -171 -357 -48 -27
-63 -30 -139 -30 -75 0 -91 4 -139 30 -64 35 -115 91 -149 165 -65 140 -1 369
216 768 36 67 70 121 75 119 5 -1 40 -58 78 -127z"/>
<path d="M1820 4190 c-90 -11 -144 -27 -220 -65 -143 -72 -239 -167 -300 -296
-62 -133 -61 -117 -57 -1138 3 -821 5 -934 20 -994 40 -165 141 -298 278 -366
134 -67 193 -76 509 -76 258 0 278 2 321 21 25 12 58 37 73 57 25 33 30 50 67
245 13 65 60 117 116 129 21 4 551 8 1178 8 l1140 0 41 -22 c52 -28 77 -76
103 -201 32 -145 78 -212 159 -229 20 -4 177 -8 347 -8 344 1 390 7 514 67 99
48 206 159 260 268 74 152 72 119 69 1154 -3 833 -5 926 -21 979 -50 168 -182
326 -342 407 -132 67 -8 64 -2205 66 -1092 1 -2014 -2 -2050 -6z m4083 -328
c73 -30 144 -99 183 -177 l29 -60 0 -915 0 -915 -33 -68 c-36 -72 -82 -115
-150 -139 -39 -14 -514 -20 -527 -6 -4 3 -15 37 -24 76 -26 100 -75 184 -143
248 -71 65 -117 90 -207 112 -58 14 -199 16 -1222 19 -1265 4 -1238 5 -1359
-54 -115 -56 -207 -180 -245 -334 l-17 -66 -51 -7 c-75 -9 -218 -7 -320 4
-113 11 -170 38 -207 96 -55 87 -55 94 -55 1029 0 916 1 932 49 1025 25 50 97
110 154 130 65 23 363 26 2247 26 l1840 -1 58 -23z"/>
<path d="M2355 3501 c-53 -24 -82 -57 -150 -171 -176 -291 -266 -467 -267
-519 -1 -79 64 -141 148 -141 70 0 97 28 216 225 59 99 111 181 116 183 4 1
49 -83 101 -187 53 -108 105 -201 122 -217 27 -26 37 -29 99 -29 62 0 72 3 99
29 46 45 57 86 36 149 -39 120 -247 522 -324 625 -28 39 -88 72 -128 72 -15 0
-46 -9 -68 -19z"/>
<path d="M3735 3495 c-58 -29 -111 -104 -211 -298 -195 -378 -206 -411 -161
-477 63 -93 186 -90 246 5 14 23 64 112 110 198 47 86 87 154 90 151 3 -3 53
-89 111 -192 117 -207 140 -232 217 -232 87 0 143 52 143 132 0 39 -11 70 -56
161 -94 187 -227 411 -292 492 -55 68 -133 92 -197 60z"/>
<path d="M5144 3481 c-55 -25 -97 -81 -184 -240 -139 -259 -210 -411 -210
-453 0 -81 59 -138 142 -138 79 0 101 24 217 233 l104 187 17 -27 c9 -16 57
-102 106 -192 99 -182 119 -203 198 -208 88 -7 150 49 148 133 0 57 -102 265
-234 481 -104 169 -127 198 -183 224 -50 23 -70 23 -121 0z"/>
</g>
</svg>
